<svg width="36" height="36" viewBox="0 0 36 36" fill="none" xmlns="http://www.w3.org/2000/svg">
<path d="M36 18C36 20.3638 35.5344 22.7044 34.6298 24.8883C33.7252 27.0722 32.3994 29.0565 30.7279 30.7279C27.3523 34.1036 22.7739 36 18 36C13.2261 36 8.64773 34.1036 5.27208 30.7279C1.89642 27.3523 -5.78131e-07 22.7739 -7.86805e-07 18C-8.9013e-07 15.6362 0.465583 13.2956 1.37017 11.1117C2.27475 8.92784 3.60062 6.94353 5.27208 5.27208C6.94353 3.60062 8.92783 2.27475 11.1117 1.37017C13.2956 0.465583 15.6362 -6.8348e-07 18 -7.86805e-07C22.7739 -9.95479e-07 27.3523 1.89642 30.7279 5.27208C34.1036 8.64773 36 13.2261 36 18ZM21.6 9L12.6 18L21.6 27L21.6 9Z" fill="#FDCD24"/>
</svg>
